<svg width="126" height="48" viewBox="0 0 126 48" fill="none" xmlns="http://www.w3.org/2000/svg">
<rect width="126" height="48" fill="black"/>
<g clip-path="url(#clip0_308_48)">
<path d="M109.5 31.6C110.494 31.6 111.3 30.7941 111.3 29.8C111.3 28.8059 110.494 28 109.5 28C108.506 28 107.7 28.8059 107.7 29.8C107.7 30.7941 108.506 31.6 109.5 31.6Z" fill="#F5D71F"/>
<path d="M9 11V38.3H115.8V11H9ZM63.4 12H89.2V37.3H63.4V12ZM62.4 37.3H36.4V12H62.4V37.3ZM10 12H35.4V37.3H10V12ZM114.8 37.3H90.3V12H114.9L114.8 37.3Z" fill="white"/>
<path d="M17.3 18C17.3 17.8 17.5 17.6 17.7 17.6H25.8C26 17.6 26.2 17.8 26.2 18V19.6C26.2 19.8 26 20 25.8 20H19.9V23.3H24.8C25 23.3 25.2 23.5 25.2 23.7V25.4C25.2 25.6 25 25.8 24.8 25.8H19.9V29.3H25.8C26 29.3 26.2 29.5 26.2 29.7V31.3C26.2 31.5 26 31.7 25.8 31.7H17.7C17.5 31.7 17.3 31.5 17.3 31.3V18Z" fill="white"/>
<path d="M43.3 18C43.3 17.8 43.5 17.6 43.7 17.6H48.4C52.3 17.6 55.4 20.7 55.4 24.6C55.4 28.5 52.2 31.6 48.4 31.6H43.7C43.5 31.6 43.3 31.4 43.3 31.2V18ZM48.2 29.2C50.8 29.2 52.7 27.2 52.7 24.6C52.7 22 50.8 20 48.2 20H45.9V29.1L48.2 29.2Z" fill="white"/>
<path d="M75 18C75 17.8 75.2 17.6 75.4 17.6H77.3C77.5 17.6 77.7 17.8 77.7 18V31.2C77.7 31.4 77.5 31.6 77.3 31.6H75.4C75.2 31.6 75 31.4 75 31.2V18Z" fill="white"/>
<path d="M101.3 20H98.2C98 20 97.8 19.8 97.8 19.6V18C97.8 17.8 98 17.6 98.2 17.6H107C107.2 17.6 107.4 17.8 107.4 18V19.6C107.4 19.9 107.2 20 107 20H103.9V31.2C103.9 31.4 103.7 31.6 103.5 31.6H101.6C101.4 31.6 101.2 31.4 101.2 31.2V20H101.3Z" fill="white"/>
</g>
<defs>
<clipPath id="clip0_308_48">
<rect width="106.8" height="27.3" fill="white" transform="translate(9 11)"/>
</clipPath>
</defs>
</svg>
